<svg viewBox="0 0 242.1 124" height="50">
 <g id="Layer_1">
  <title>Layer 1</title>
  <path stroke="#000" fill="none" id="svg_2" d="m128.24027,15.09748c-0.26116,0 -0.63171,-0.41029 -1.04464,-0.8675c-0.41293,-0.45722 -0.78349,-0.57834 -1.04465,-0.8675c0,0 0,-0.28917 -0.26116,-0.57834c-0.26117,-0.28917 -0.42239,-0.88952 -0.52232,-1.15667c-0.14134,-0.37782 -0.52232,-0.57834 -0.52232,-0.8675c0,-0.28917 0,-0.57834 -0.26116,-1.15667c0,0 -0.11982,-0.48969 -0.26116,-0.8675c-0.09995,-0.26716 -0.12699,-0.23821 -0.26116,-0.8675c-0.06,-0.28143 0,-0.8675 -0.26117,-1.15667c0,0 0,-0.28916 0,-0.57834c0,-0.28916 0,-0.57834 0,-1.15667c0,-0.28916 0.11983,-0.48969 0.26117,-0.8675c0.09995,-0.26716 0.07649,-0.08469 0.26116,-0.28916c0.18467,-0.20447 0.07649,-0.37386 0.26116,-0.57834c0.18467,-0.20447 0.48386,-0.33922 0.78348,-0.57834c0.47375,-0.37808 0.78349,-0.57834 0.78349,-0.57834c0,0 0.26116,-0.28916 0.52232,-0.28916c0,0 0.26117,0 0.52232,0c0,0 0.26116,0 0.52232,0c0,0 0.26116,0 0.26116,0c0.26116,0 0.28104,-0.11066 0.52232,0c0.34122,0.1565 0.52232,0.28916 0.78348,0.57834c0.26116,0.28916 0.64216,0.48969 0.78349,0.8675c0.09995,0.26716 0.20116,0.58607 0.26116,0.8675c0.13417,0.6293 0.52232,0.8675 0.52232,1.15667c0,0.57834 0.26116,0.57834 0.26116,0.8675c0,0.28916 0.26116,0.8675 0.26116,1.44584c0,0.57834 0.127,1.10571 0.26116,1.735c0.12,0.56286 0,0.8675 0,1.15667c0,0.28917 0,0.28917 0,0.57834c0,0.57834 0,0.8675 0,1.15667c0,0.28917 -0.11983,0.48969 -0.26116,0.8675c-0.09995,0.26716 -0.26116,0.57834 -0.26116,0.57834c-0.26116,0.28916 -0.52232,0.28916 -0.52232,0.28916c-0.26116,0.28917 -0.26116,0.28917 -0.52232,0.28917c0,0 -0.26116,0 -0.26116,0c-0.26117,0 -0.52233,0.28916 -0.52233,0.28916c-0.26116,0 -0.26116,0 -0.52232,0c-0.26116,0 -0.26116,0 -0.52232,0c-0.26116,0 -0.26116,0 -0.52232,0l0,0l-0.26116,0"/>
  <path stroke="#000" fill="none" id="svg_3" d="m78.00743,21.64655c0,0.74481 0,1.11721 0,1.11721c0,0.37241 0,0.74481 0,0.74481c0,0.74481 0,1.11721 0,1.48961c0,0.37241 0.24803,1.17391 0,1.86201c-0.17538,0.48656 -0.20005,0.77316 -0.32406,1.11721c-0.17538,0.48656 -0.47275,1.00304 -0.64813,1.48961c-0.24803,0.68811 -0.48164,1.05157 -0.64813,1.86201c-0.07446,0.36244 -0.15758,1.05158 -0.32406,1.86201c-0.07446,0.36245 0,0.74481 0,1.11721c0,0.37241 0,1.11721 0,1.48961c0,0.74481 0,1.11721 0,1.48961c0,0.3724 0,0.74481 0,0.74481c0,0.37241 0,0.37241 0,0.37241c0.32406,0.3724 0.09492,0.48147 0.32406,0.74481c0.22915,0.26333 0.32407,0 0.64813,0c0,0 0.64813,0 0.64813,0c0.32406,0 0.64813,0 0.64813,0c0.32407,0 0.64813,0 0.64813,0c0.64813,0 0.64813,0 0.97219,0c0,0 0.34873,0.14252 0.64813,0c0.42341,-0.20154 0.54878,-0.54326 0.97219,-0.74481c0.2994,-0.14252 0.34873,-0.22989 0.64813,-0.37241c0.42341,-0.20154 0.64813,-0.74481 0.64813,-0.74481c0,-0.3724 0.22471,-0.54327 0.64813,-0.74481c0.2994,-0.14252 0.64813,-0.74481 0.64813,-0.74481c0.32407,-0.37241 0.47275,-0.63064 0.64813,-1.11721c0.12402,-0.34406 0.32406,-0.74481 0.64813,-1.11721c0.32406,-0.37241 0.64813,-0.74481 0.64813,-1.11721c0,-0.37241 0.41898,-0.85388 0.64813,-1.11721c0.4583,-0.52666 0.14868,-0.63064 0.32406,-1.11721c0.12402,-0.34406 0.09492,-0.48148 0.32406,-0.74481c0.22915,-0.26333 0.37246,-0.17662 0.64813,-0.3724c0.61641,-0.43778 0.32407,-0.74481 0.64813,-0.74481c0,0 0,-0.3724 0.32406,-0.3724c0.64813,0 0.97219,0 1.62032,-0.3724c0.64813,-0.3724 1.59043,-0.5572 2.91656,-0.74481c1.60817,-0.22751 3.24064,-0.3724 4.53689,-0.3724c1.29626,0 2.26844,0 3.24064,0c0.97219,0 1.62032,0 2.26844,0c0.32406,0 0.64813,0 0.64813,0c0.9722,0 1.62032,0 2.59251,0c0.97219,0 2.23856,0.18479 3.56469,0.3724c1.28654,0.182 3.24064,0 5.18501,0c1.62032,0 2.91656,0 4.21282,0c1.62032,0 2.91656,0 4.86095,0c0.32407,0 0.9722,0 1.62032,0c1.29626,0 2.59881,0.14679 3.88876,0c1.64436,-0.18711 3.20128,-0.55617 4.21282,-0.74481c0.95964,-0.17896 1.94438,0 2.91657,0c0.64813,0 0.97219,0 1.29625,0c0.64813,0 1.29625,0 2.26845,0c0.97219,0 1.94437,0 2.59249,0c0.64814,0 0.9722,0 1.62032,0c0.64813,0 1.29625,0 2.26843,0c0.64813,0 1.62032,0 1.94438,0c0.64813,0 1.29625,0 1.94437,0c0.9722,0 1.9653,0.29826 3.5647,0c1.01154,-0.18863 1.29625,-0.3724 1.94438,-0.3724c0.97219,0 1.62032,-0.3724 2.59249,-0.3724c0.32406,0 0.9722,0 1.29626,0c0.32406,0 0.64813,0 0.97219,0c0.64813,0 1.62032,-0.37241 2.26843,-0.37241c0.32406,0 0.32406,0 0.9722,0c0.97219,0 1.62032,-0.3724 1.94437,-0.3724c0.64813,0 0.97219,0 1.62032,0c0.64813,0 0.6728,-0.14252 0.97219,0c0.42341,0.20154 0.64813,0.3724 1.29625,0.3724c0,0 0.32406,0 0.32406,0c0.32406,0 0.64813,0 0.97219,0c0.64814,0 0.64814,0 0.64814,0c0.32406,0.37241 0.32406,0.37241 0.32406,0.37241c0,0.3724 0.32406,0.3724 0.32406,0.74481c0,0 0,0 0,0.37241c0,0.3724 0,0.74481 0,0.74481c-0.32406,0 -0.32406,0 -0.32406,0c-0.32406,0 -0.32406,0.37241 -0.64814,0.74481c0,0 0.22914,0.10907 0,0.3724c-0.22914,0.26333 -0.32406,0 -0.32406,0c-0.32406,0.3724 -0.64813,0.74481 -0.64813,0.74481c-0.32406,0 -0.64813,0.3724 -0.97219,0.74481c-0.32406,0.37241 -0.64813,0.74481 -0.64813,0.74481c-0.32406,0 -0.09492,0.10907 -0.32406,0.3724c-0.22914,0.26333 -0.32406,0.37241 -0.32406,0.37241c0,0.3724 0,0.3724 0,0.74481c0,0 0.32406,0.37241 0.32406,0.37241c0,0.3724 0.32406,0.3724 0.32406,0.3724c0,0 0.32406,0.3724 0.32406,0.3724c0.32406,0.37241 0.32406,0.37241 0.32406,0.37241c0.32406,0 0.32406,0.3724 0.64813,0.3724c0,0 0.09492,0.10907 0.32406,0.3724c0.22914,0.26333 0.64813,0.37241 0.97219,0.37241c0.32408,0 0.64814,0 0.64814,0c0.32406,0 0.64813,0 0.64813,0c0.32406,0 0.64813,0 0.64813,0c0.32406,0 0.64813,0 0.97219,-0.37241c0,0 0.32406,0 0.64813,-0.3724c0,0 -0.09934,-0.54327 0.32406,-0.74481c0.29941,-0.14252 0.80572,-0.30677 0.9722,-1.11721c0.07445,-0.36244 0.09492,-0.48147 0.32406,-0.74481c0.22914,-0.26333 0.32406,-0.37241 0.64813,-0.74481c0,0 0.32406,-0.74481 0.64813,-1.11721c0.32406,-0.3724 0.32406,-1.11721 0.32406,-1.11721c0.32406,-0.74481 0.32406,-0.74481 0.32406,-1.11721c0,-0.74481 0,-1.11721 0,-1.48961c0,-0.3724 -0.05609,-0.31756 -0.32406,-0.74481c-0.4237,-0.67554 -0.97219,-1.11721 -0.97219,-1.11721c-0.32406,-0.3724 -0.54878,-0.54326 -0.97219,-0.74481c-0.29939,-0.14252 -0.22472,-0.17086 -0.64813,-0.37241c-0.29941,-0.14252 -0.64814,-0.3724 -0.9722,-0.3724c0,0 -0.32406,0 -0.64813,-0.3724c-0.32406,-0.37241 -0.64813,-0.37241 -0.64813,-0.37241c-0.32406,0 -0.33273,0.08556 -0.64813,0c-0.70525,-0.19132 -0.97219,-0.74481 -1.62032,-0.74481c-0.64813,0 -0.74303,-0.10907 -0.97219,-0.37241c-0.4583,-0.52666 -1.29625,-0.3724 -1.62032,-0.3724c-0.64813,0 -0.91506,-0.18108 -1.62032,-0.3724c-0.3154,-0.08555 -0.97219,0 -1.29625,0c-0.64813,0 -1.29625,0 -1.94437,0c-0.32408,0 -0.9722,0 -1.62032,0c-0.32406,0 -0.97219,0 -1.62032,0c-0.64813,0 -1.30881,-0.17896 -2.26845,0c-1.01154,0.18863 -1.94437,0.3724 -2.26843,0.3724c-0.64814,0 -1.29626,0 -1.94438,0c-0.64813,0 -1.29625,0 -1.94437,0c-0.64813,0 -1.29626,0 -1.94438,0c-0.64813,0 -1.29625,0 -1.62032,0c-0.32406,0 -0.97219,0 -1.94438,0c-0.97219,0 -2.26843,0 -2.91656,0c-0.9722,0 -1.29626,0 -1.94438,0c-0.97219,0 -1.90502,-0.18376 -2.91657,-0.3724c-0.95964,-0.17895 -1.62032,0 -2.59249,0c-0.64813,0 -1.63287,0.17896 -2.59251,0c-1.01154,-0.18863 -1.30879,-0.19345 -2.26844,-0.3724c-1.01154,-0.18863 -1.56321,-0.55349 -2.26844,-0.74481c-0.63079,-0.17112 -0.97219,0 -1.62032,0c-0.64813,0 -1.29625,0 -1.62032,0c-0.32406,0 -0.97219,0 -0.97219,0c-0.64813,0 -0.64813,0 -1.29626,0c-0.64813,0 -0.97219,0 -1.29625,0c-0.32407,0 -0.64813,0 -1.29626,0c-0.32406,0 -0.64813,0 -0.64813,0c-0.64813,0 -1.29626,0 -2.59251,0c-1.29625,0 -1.94438,0 -2.5925,0c-0.64813,0 -1.2569,0.18376 -2.26844,0.3724c-0.63975,0.1193 -0.97219,0 -1.62032,0c0,0 -0.32406,0 -1.29625,0c-0.32407,0 -0.99821,-0.25668 -1.94438,0c-0.70525,0.19132 -1.62032,0.37241 -1.94438,0.37241c-0.64813,0 -0.9722,0 -1.29626,0c-0.32406,0 -0.97219,0 -1.62032,0c-0.32406,0 -0.64813,0 -1.29625,0c-0.64813,0 -0.9722,0 -1.62032,0c-0.32406,0 -0.64813,0 -1.29626,0c-0.64813,0 -1.23913,0.18108 -1.94438,0.3724c-0.63079,0.17112 -1.29625,0 -1.94438,0c-0.32406,0 -0.97219,0 -1.62032,0c-0.32406,0 -1.29625,0 -1.94438,0c-0.64813,0 -1.29625,0 -1.62032,0c-0.32406,0 -0.91508,0.18108 -1.62032,0.3724c-0.94619,0.25668 -1.64499,-0.14252 -1.94438,0c-0.42341,0.20154 -0.9722,0.3724 -1.29626,0.3724c-0.32406,0 -0.64813,0 -0.97219,0c-0.32406,0 -0.54878,0.17086 -0.9722,0.37241c-0.2994,0.14252 -0.64813,0 -0.97219,0c-0.32406,0 -0.32406,0 -0.64813,0c0,0 -0.34873,-0.14252 -0.64813,0c-0.42341,0.20154 -0.32406,0.3724 -0.64813,0.3724c-0.32406,0 -0.32406,0 -0.64813,0c-0.32407,0 -0.74304,-0.26333 -0.9722,0c-0.22915,0.26333 0,0.3724 -0.32406,0.3724c0,0 0.22915,0.10907 0,0.37241c-0.22915,0.26333 -0.32406,0.3724 -0.32406,0.3724c0,0.3724 -0.32407,0.74481 -0.32407,0.74481l0,0l0.32407,0"/>
  <path stroke="#000" fill="none" id="svg_4" d="m114.80957,33.25062c-0.3526,0 -0.7052,0 -0.7052,0c-0.3526,0 -0.3526,0 -0.7052,0c-0.35261,0 -0.35261,0 -0.7052,0c0,0 -0.7052,0.35104 -1.0578,0.70209c0,0 -0.3526,0 -0.3526,0c-0.3526,0.35104 -0.3526,0.70209 -0.3526,0.70209c-0.35261,0 -0.35261,0.35104 -0.35261,0.35104c0,0.35104 -0.16177,0.24343 -0.3526,0.70209c-0.13494,0.32432 -0.3526,0.70209 -0.3526,0.70209c0,0.35104 0,0.35104 0,0.70209c0,0.35104 0.29046,0.52174 1.05781,0.70209c0.34316,0.08065 0.7052,0.35104 1.0578,0.35104c0.3526,0 0.3526,0 0.7052,0c0,0 0.24451,0.51211 0.7052,0.70209c0.32576,0.13434 0.7052,0 1.0578,0c0.3526,0 0.73204,-0.13434 1.05781,0c0.46069,0.18998 0.3526,0.35104 0.7052,0.35104c0.3526,0 0.3526,0 0.3526,0c0.3526,0 0.7052,0 0.7052,0c0.35261,0 0.7052,0 0.7052,0c0.3526,0.35104 0.7052,0.35104 1.0578,0.35104c0.3526,0 0.7052,0 1.05781,0c0,0 0.3526,0 0.3526,0c0.3526,0 0.3526,0 0.7052,0c0,0 0.3526,0 0.3526,0c0,-0.35104 0.3526,-0.35104 0.7052,-0.35104c0,0 0.3526,0 0.3526,0c0.3526,0 0.37944,0.13434 0.7052,0c0.46069,-0.18998 0.3526,-0.35104 0.7052,0c0,0 -0.24933,0.10282 0,0.35104c0.24933,0.24823 0.35261,0 0.35261,0c0.3526,0.35104 0.7052,0.35104 0.7052,0.70209c0,0 -0.24933,0.45387 0,0.70209c0.24933,0.24823 0.3526,0.35104 0.3526,0.70209c0,0 0,0.35104 0,0.35104c0,0.35104 0,0.35104 0,0.70209c0,0.35105 -0.24933,0.45387 0,0.70209c0.24933,0.24823 0.3526,0.35104 0.3526,0.35104c0,0.70209 0,1.05313 0,1.75522c0,0 0,0.35104 0,0.35104c0,0.35104 0,0.70209 0,0.70209c0.3526,0.35104 0.3526,0.70209 0.3526,0.70209c0,0.35104 0,0.70209 0,1.05313c0,0.35104 0,0.35104 0,0.70209c0,0.35105 0,0.70209 0,1.05314c0,0.35104 0,0.70209 0,0.70209c0,0.35104 0,0.35104 0,0.70209c0,0 0.24933,0.45387 0,0.70209c-0.24933,0.24823 -0.3526,0.35104 -0.7052,0.35104c0,0 -0.7052,0.35104 -1.0578,0.35104c0,0 -0.35261,0 -0.35261,0c-0.3526,0.35104 -0.59711,0.5121 -1.0578,0.70209c-0.32576,0.13434 -0.40628,-0.26869 -1.05781,0c-0.4607,0.18998 -0.7052,0.35105 -1.0578,0.35105c0,0 -0.3526,0 -0.7052,0c-0.3526,0 -1.05781,0 -1.76301,0c-0.3526,0 -0.3526,0 -0.7052,0c-0.7052,0 -1.41041,0 -2.11561,0c-0.7052,0 -0.7052,0.35104 -1.41041,0.35104c-0.3526,0 -0.7052,0 -1.05781,0c-0.7052,0 -0.7052,0 -1.0578,0c-0.7052,0 -1.41041,0 -1.76301,0c-0.3526,0 -0.7052,0 -1.0578,0c-0.7052,0 -1.05781,0 -1.41041,0c-0.7052,0 -1.0578,0 -1.76301,0c-0.3526,0 -0.7052,0 -1.0578,0c-0.7052,0 -1.41041,0.35104 -2.46821,0.35104c-0.7052,0 -1.41041,0.35104 -2.11561,0.35104c0,0 -0.7052,0.35104 -1.05781,0.35104c-0.3526,0 -0.7052,0 -1.4104,0c-1.05781,0 -1.76301,0.35104 -2.46821,0.35104c-0.35261,0 -1.05781,0.00001 -2.11561,0.35105c-1.05781,0.35105 -2.05346,0.52174 -2.82082,0.70209c-0.34316,0.08065 -0.71431,-0.11246 -1.4104,0c-1.10062,0.17782 -1.76301,0.70209 -2.46821,0.70209c-0.35261,0 -0.35261,0.35104 -0.7052,0.35104c-0.7052,0 -1.16108,0.10283 -1.4104,0.35105c-0.24933,0.24823 -0.2907,0.3854 -0.7052,1.05313c-0.18537,0.29861 -0.3526,0.70209 -0.3526,0.70209c0,0.35104 0,0.35104 0,0.70209c0,0.35104 0,0.70209 0,1.05313c0,0.35104 0,0.35104 0,0.70209c0,0 -0.10809,0.51211 0.3526,0.70209c0.32576,0.13434 0.24451,0.5121 0.7052,0.70209c0.32576,0.13434 0.7052,0.70209 1.4104,0.70209c0.3526,0 0.36204,-0.08066 0.7052,0c0.76734,0.18034 1.0578,0.35105 1.4104,0.35105c0.7052,0 1.06724,-0.08065 1.41041,0c0.76734,0.18034 1.4104,0.35104 2.11561,0.35104c1.0578,0 1.4104,0 2.11561,0c1.0578,0 1.76301,0 3.1734,0c0.7052,0 1.41041,0 2.11561,0c0.7052,0 1.72019,0.17322 2.82081,0.35104c1.39219,0.22493 2.46821,0 3.52602,0c0.3526,0 1.41041,-0.35104 2.11561,-0.35104c1.0578,0 1.76301,0 2.82081,0c0.3526,0 0.37944,0.13434 0.7052,0c0.46069,-0.18998 1.0578,-0.35104 2.1156,-0.35104c0.35261,0 0.7052,0 1.41041,0c0.3526,0 1.41041,0 1.76301,0c0.3526,0 1.0578,0 1.76301,0c0.7052,0 1.0578,0 1.76301,0c0.7052,0 1.0578,0 1.4104,0c0.3526,0 0.3526,0 0.7052,0c0,0 0.7052,0 0.7052,0c0.3526,0 0.7052,0.35104 0.7052,0.35104c0.3526,0.35104 0.3526,0.70209 0.3526,0.70209c0.3526,0.35104 0.10327,0.45386 0.3526,0.70209c0.24933,0.24823 0.51438,-0.10761 0.7052,0.35105c0.13494,0.32432 0.3526,0.35104 0.3526,1.05313c0,0.35104 0.08273,0.75553 0.3526,1.40418c0.19082,0.45866 0.51437,0.59447 0.7052,1.05313c0.13494,0.32432 0.16178,0.59446 0.35261,1.05314c0.26987,0.64864 0.3526,1.40417 0.3526,2.10626c0,0.35104 0,0.70209 0,1.05313c0,0.35104 0,1.05314 0,1.40418c0,0.70209 0,1.05313 0,1.40417c0,0.70209 0,1.05314 0,1.40418c0,0.35104 0,0.70209 0,1.75522c0,0.35104 0,0.70209 0,1.40417c0,0.35105 0,0.70209 0,1.40418c0,0.35104 0,1.05313 0,1.40418c0,0.35104 0,1.05313 0,1.40417c0,0.70209 0,0.70209 0,1.40418c0,0.35104 0,0.70209 0,1.05313c0,0.35105 0,0.70209 0,0.70209c0,0.35104 0,0.7021 0,1.40419c0,0.35104 0,0.70209 0,0.70209c0,0.35104 -0.16177,0.59447 -0.3526,1.05313c-0.13494,0.32432 0,0.35104 0,0.70209c0,0 0,0.35104 0,0.70209c0,0.35104 -0.08274,0.75554 -0.35261,1.40419c-0.19082,0.45866 -0.7052,1.05313 -0.7052,1.40417c0,0.35104 -0.52405,0.64021 -0.7052,1.40417c-0.08101,0.34166 -0.21767,0.72882 -0.3526,1.05314c-0.19082,0.45866 -0.7052,0.70209 -0.7052,0.70209c0,0.35104 0,0.70209 0,0.70209c0,0 -0.16177,0.24343 -0.3526,0.70209c-0.13494,0.32432 -0.10327,0.80491 -0.3526,1.05313c-0.24933,0.24822 -0.51437,-0.10761 -0.7052,0.35104c-0.13494,0.32432 -0.35261,0.7021 -0.35261,0.7021c0,0.35104 -0.3526,0.70209 -0.3526,0.70209c0,0 -0.3526,0.35104 -0.7052,0.70209c0,0 -0.3526,0.35104 -0.7052,0.70209c-0.3526,0.35104 -0.59712,0.51211 -1.05781,0.70209c-0.32576,0.13434 -0.7052,0 -1.0578,0.35104c0,0 -0.3526,0 -0.7052,0c-1.0578,0 -2.11561,0.35104 -2.46821,0.35104c-0.3526,0 -0.64306,-0.17071 -1.4104,-0.35104c-0.34317,-0.08065 -0.73205,-0.21671 -1.05781,-0.35104c-0.46069,-0.18998 -0.7052,-0.35104 -1.0578,-0.35104c-0.3526,0 -0.7052,0 -0.7052,0c-0.3526,0 -0.24451,-0.16107 -0.7052,-0.35104c-0.32576,-0.13434 -0.7052,0 -1.0578,0c-0.35261,0 -0.7052,0 -0.7052,0c-0.3526,0 -0.3526,0.35104 -0.3526,0.70209c0,0.35104 0,0.70209 0,1.05313c0,0.35106 -0.10841,0.41636 0.3526,1.05314c0.29157,0.40274 0.59712,0.86315 1.05781,1.05313c0.32576,0.13434 0.7052,0.35104 1.0578,0.70209c0.3526,0.35104 0.81053,0.68403 1.41041,1.05313c0.67069,0.41267 0.7052,1.05314 1.0578,1.40419c0.3526,0.35104 1.05781,0.70209 1.76301,1.05313c0.7052,0.35104 1.05781,0.70209 1.76301,1.05313c0.7052,0.35104 1.41041,0.35104 1.76301,0.70209c0.3526,0.35104 1.1234,0.24311 1.76301,0.70209c0.40453,0.29029 0.7052,0.35106 1.0578,0.35106c0.3526,0 0.7052,0 1.41041,0.35104c0.7052,0.35104 1.4104,0.35104 1.76301,0.35104c0.7052,0 0.94971,0.16107 1.41041,0.35104c0.65152,0.26868 1.41041,0 1.76301,0c0.3526,0 1.0578,0 1.76301,0c0.3526,0 1.0578,0 1.4104,0c0.3526,0 0.3526,0 0.7052,-0.35104c0,0 0.02683,-0.21671 0.3526,-0.35104c0.46069,-0.18998 0.3526,-0.7021 0.3526,-0.7021c0.3526,-0.35104 0.21767,-0.72881 0.3526,-1.05313c0.19082,-0.45866 0.2716,-0.71147 0.35261,-1.05313c0.18114,-0.76396 0.51438,-0.59447 0.7052,-1.05313c0.13494,-0.32432 0,-0.70209 0,-1.05314c0,-0.35104 0.10328,-0.45387 0.3526,-0.70209c0.49866,-0.49645 0,-1.40417 0,-2.45729c0,-1.05313 0,-1.75523 0,-2.45731c0,-0.35104 0,-1.05313 0,-1.75522c0,-0.35104 0,-0.70209 0,-1.40419c0,-0.70209 -0.3526,-1.05313 -0.3526,-1.75522c0,-0.35104 0,-1.05313 0,-2.10626c0,-0.7021 0.17146,-0.99126 0.3526,-1.75523c0.08101,-0.34166 -0.26987,-1.10657 0,-1.75522c0.19082,-0.45866 0.3526,-1.05313 0.3526,-1.75523c0,-0.70209 0.3526,-1.75522 0.3526,-2.45729c0,-0.70209 0,-1.40417 0,-1.75523c0,-0.35104 0,-0.70208 0,-1.05313c0,-0.70209 0,-1.05313 0,-1.75522c0,-0.35105 0,-1.05314 0,-1.75522c0,-0.35104 0,-0.70209 0,-1.75522c0,-0.70209 0.3526,-1.40418 0.3526,-2.10626c0,-0.35104 0,-0.70209 0,-0.70209c0,-0.70209 0,-1.40418 0,-1.75522c0,-1.05314 -0.3526,-1.75522 -0.3526,-2.4573c0,-0.70209 0.16202,-1.07191 0,-1.75522c-0.18114,-0.76395 -0.3526,-1.40418 -0.3526,-1.40418c0,-0.70209 -0.16178,-1.29656 -0.3526,-1.75522c-0.26987,-0.64865 0,-1.40418 0,-1.75522c0,-0.35104 -0.16178,-0.59448 -0.3526,-1.05314c-0.13494,-0.32432 0,-0.70209 0,-1.05313c0,-0.35104 0,-0.70209 0,-0.70209c0,-0.70209 0,-1.05314 0,-1.40418c0,-0.35104 0.10326,-0.80491 0.3526,-1.05314c0.24932,-0.24823 0.7052,-0.35104 0.7052,-0.35104c0.3526,-0.35104 0.3526,-0.35104 0.7052,-0.35104c0.3526,0 0.3526,0 0.7052,0c0,0 0.3526,0 0.70521,0c0.7052,0 1.0578,0 1.4104,0c0.3526,0 1.0578,0 1.76301,0c0.3526,0 1.0578,0 1.76301,0c0.3526,0 1.0578,0 1.76301,0c0.7052,0 1.41951,0.11246 2.11561,0c1.10062,-0.17782 1.76301,-0.35104 2.8208,-0.35104c0.3526,0 1.0578,0 2.11561,0c0.7052,0 1.4104,0 2.1156,0c0.3526,0 1.0578,0 1.76301,0c1.0578,0 1.76301,0 2.4682,0c0.7052,0 1.44813,-0.02842 2.82082,-0.35104c0.76735,-0.18034 1.76301,-0.35104 2.1156,-0.70209c0,0 0.3526,0 0.7052,0c0.70521,0 1.05781,0 1.41042,0c0.3526,0 1.0578,-0.35104 1.4104,-0.35104c0.3526,0 1.4104,-0.35104 2.1156,-0.35104c0.70521,0 1.05781,-0.35104 1.76301,-0.70209c0.7052,-0.35104 1.34825,-0.87278 2.1156,-1.05314c0.68635,-0.1613 1.21959,-0.59447 1.41042,-1.05313c0.13494,-0.32432 0.3526,-0.70209 0.3526,-1.05314c0,-0.35104 0.3526,-0.70209 0.3526,-1.05313c0,0 0,-0.35104 0,-0.35104c0,-0.35104 0.08101,-0.71149 0,-1.05314c-0.18114,-0.76395 -0.3526,-0.70209 -0.3526,-1.05313c0,0 -0.21767,-0.37776 -0.3526,-0.70209c-0.19082,-0.45866 -0.16722,-0.40347 -0.3526,-0.70209c-0.41452,-0.66773 -1.05781,-0.35104 -1.41042,-0.70209c-0.3526,-0.35104 -1.08464,-0.56775 -1.4104,-0.70209c-0.46069,-0.18998 -0.7052,-0.70209 -1.4104,-0.70209c-0.3526,0 -1.07669,-0.18974 -1.76301,-0.35104c-0.76735,-0.18034 -1.41983,-0.27039 -1.76301,-0.35104c-0.76735,-0.18034 -1.0578,-0.35104 -1.76301,-0.35104c-0.7052,0 -1.4104,0 -2.1156,0c-1.0578,0 -1.76301,0 -2.46822,0c-0.7052,0 -1.77666,-0.16869 -2.8208,0c-1.10062,0.17782 -1.76301,0.35104 -2.46822,0.35104c-0.7052,0 -1.76301,0 -2.1156,0c-0.7052,0 -1.41042,0 -2.11561,0c-0.7052,0 -1.0578,0 -1.4104,0c-0.7052,0 -1.4104,0 -1.76301,0c-0.35262,0 -0.70521,0 -1.05781,0c-0.3526,0 -1.0578,0 -1.4104,0c-0.3526,0 -0.7052,0 -0.7052,0c-0.3526,-0.35104 -0.7052,-0.35104 -1.0578,-0.35104c-0.35262,0 -0.35262,0 -0.70521,0c0,0 -0.7052,-0.35104 -1.0578,-0.35104c0,0 -0.7052,-0.35105 -1.0578,-0.35105c-0.3526,0 -0.3526,0 -0.3526,0c-0.3526,0 -0.3526,0 -0.7052,-0.35104c-0.3526,-0.35104 -0.59711,-0.5121 -1.05781,-0.70209c-0.32575,-0.13433 -0.7052,-0.35104 -0.7052,-0.35104c-0.3526,0 -0.80848,-0.10282 -1.0578,-0.35104c-0.24933,-0.24823 -0.10328,-0.10283 -0.3526,-0.35105c-0.24932,-0.24823 -0.10328,-0.45386 -0.3526,-0.70209c-0.24932,-0.24823 0,-0.70209 -0.3526,-0.70209c0,0 0,-0.35104 0,-0.70209c0,0 0,-0.70209 0,-0.70209c0,-0.35104 0,-0.70209 0,-0.70209c0,-0.35104 0,-0.70209 0,-0.70209c0,-0.35104 0,-0.70209 0,-0.70209c0,-0.35104 0.3526,-0.35104 0.3526,-0.70209c0,0 0.3526,0 0.3526,0c0.3526,-0.35104 0.71463,-0.62143 1.0578,-0.70209c0.76735,-0.18034 0.73205,-0.21672 1.0578,-0.35105c0.4607,-0.18998 0.35262,-0.35104 0.70521,-0.35104c0.3526,0 0.7052,0 1.0578,0c0.3526,0 1.26435,0.49644 1.76301,0c0.24932,-0.24823 0.3526,-0.35104 0.7052,-0.35104c0,0 0.3526,0 0.70521,0c0,0 0.36203,0.08065 0.7052,0c0.76735,-0.18034 0.7052,-0.35104 1.0578,-0.35104c0,0 0.3526,0 0.7052,0c0.3526,0 0.3526,0 0.7052,0c0.3526,0 0.3526,0 0.7052,0c0.35262,0 0.35262,-0.35104 0.35262,-0.35104c0.3526,0 0.7052,0 0.7052,0c0.3526,0 0.7052,0 1.0578,-0.35104c0,0 0,-0.35105 0.3526,-0.35105c0,0 0,-0.35104 0,-0.35104c0,-0.35104 0,-0.35104 0,-0.70209c0,0 0,-0.35104 0,-0.35104c0,-0.35104 0,-0.35104 0,-0.70209c0,-0.35104 0,-0.35104 0,-0.70209c0,0 0,-0.35104 -0.3526,-0.35104c0,0 -0.02684,-0.21671 -0.3526,-0.35104c-0.46069,-0.18998 -0.3526,-0.35104 -0.3526,-0.35104c-0.3526,0 -0.3526,0 -0.7052,0c-0.3526,0 -0.24451,-0.16106 -0.70521,-0.35104c-0.32575,-0.13433 -0.59711,-0.16107 -1.0578,-0.35105c-0.32575,-0.13434 -0.3526,0 -0.7052,0c0,0 -0.7052,-0.35104 -1.0578,-0.35104c-0.3526,0 -0.3526,0 -1.0578,0c0,0 -0.70521,0 -0.70521,0c-0.7052,0 -1.0578,0 -1.4104,0c-0.3526,0 -0.7052,0 -0.7052,0c-0.3526,0 -0.7052,0 -0.7052,0c-0.3526,0 -0.7052,0 -1.41042,-0.35104c0,0 -0.3526,0 -0.3526,0c-0.3526,0 -0.7052,0 -1.0578,0c-0.3526,0 -0.7052,-0.35104 -1.0578,-0.35104c0,0 -0.7052,0 -1.0578,0c-0.7052,0 -0.7052,0 -1.05781,0c-0.3526,0 -0.7052,0 -1.05781,0c0,0 -0.3526,0 -0.7052,0c-0.7052,0 -1.0578,0 -1.76301,0c-0.3526,0 -0.7052,0 -1.4104,0c-0.7052,0 -1.05781,0 -1.41041,0c-0.7052,0 -1.41041,0 -1.76301,0c-0.7052,0 -1.0578,0 -1.41041,0c-0.3526,0 -0.7052,0 -1.0578,0c-0.7052,0 -0.7052,0 -1.0578,0c-0.35261,0 -0.7052,0 -1.41041,0c0,0 -0.3526,0 -0.3526,0c-0.3526,0 -0.3526,0 -0.7052,0c-0.3526,0 -0.3526,0 -0.7052,0c0,0 -0.3526,0 -0.3526,0c-0.3526,0.35104 -0.7052,0.35104 -1.05781,0.35104c-0.3526,0 -0.7052,0.35104 -1.0578,0.35104l0,0.35104"/>
 </g>
</svg>